<mxfile host="65bd71144e">
    <diagram id="5Rzo52HtfpNdLo6PEEZ0" name="第 1 页">
        <mxGraphModel dx="2080" dy="817" grid="1" gridSize="10" guides="1" tooltips="1" connect="1" arrows="1" fold="1" page="1" pageScale="1" pageWidth="827" pageHeight="1169" math="0" shadow="0">
            <root>
                <mxCell id="lT-WJmCvZGzixhSHDwki-0"/>
                <mxCell id="lT-WJmCvZGzixhSHDwki-1" parent="lT-WJmCvZGzixhSHDwki-0"/>
                <mxCell id="JbTs0OWZMiUBEUDtPIBe-4" value="FArchiveState" style="swimlane;fontStyle=1;align=center;verticalAlign=top;childLayout=stackLayout;horizontal=1;startSize=26;horizontalStack=0;resizeParent=1;resizeParentMax=0;resizeLast=0;collapsible=1;marginBottom=0;" parent="lT-WJmCvZGzixhSHDwki-1" vertex="1">
                    <mxGeometry x="830" y="194" width="160" height="86" as="geometry"/>
                </mxCell>
                <mxCell id="JbTs0OWZMiUBEUDtPIBe-5" value="+ field: type" style="text;strokeColor=none;fillColor=none;align=left;verticalAlign=top;spacingLeft=4;spacingRight=4;overflow=hidden;rotatable=0;points=[[0,0.5],[1,0.5]];portConstraint=eastwest;" parent="JbTs0OWZMiUBEUDtPIBe-4" vertex="1">
                    <mxGeometry y="26" width="160" height="26" as="geometry"/>
                </mxCell>
                <mxCell id="JbTs0OWZMiUBEUDtPIBe-6" value="" style="line;strokeWidth=1;fillColor=none;align=left;verticalAlign=middle;spacingTop=-1;spacingLeft=3;spacingRight=3;rotatable=0;labelPosition=right;points=[];portConstraint=eastwest;" parent="JbTs0OWZMiUBEUDtPIBe-4" vertex="1">
                    <mxGeometry y="52" width="160" height="8" as="geometry"/>
                </mxCell>
                <mxCell id="JbTs0OWZMiUBEUDtPIBe-7" value="+ method(type): type" style="text;strokeColor=none;fillColor=none;align=left;verticalAlign=top;spacingLeft=4;spacingRight=4;overflow=hidden;rotatable=0;points=[[0,0.5],[1,0.5]];portConstraint=eastwest;" parent="JbTs0OWZMiUBEUDtPIBe-4" vertex="1">
                    <mxGeometry y="60" width="160" height="26" as="geometry"/>
                </mxCell>
                <mxCell id="JbTs0OWZMiUBEUDtPIBe-8" value="FLinkerTables" style="swimlane;fontStyle=1;align=center;verticalAlign=top;childLayout=stackLayout;horizontal=1;startSize=26;horizontalStack=0;resizeParent=1;resizeParentMax=0;resizeLast=0;collapsible=1;marginBottom=0;" parent="lT-WJmCvZGzixhSHDwki-1" vertex="1">
                    <mxGeometry x="550" y="260" width="160" height="86" as="geometry"/>
                </mxCell>
                <mxCell id="JbTs0OWZMiUBEUDtPIBe-9" value="+ field: type" style="text;strokeColor=none;fillColor=none;align=left;verticalAlign=top;spacingLeft=4;spacingRight=4;overflow=hidden;rotatable=0;points=[[0,0.5],[1,0.5]];portConstraint=eastwest;" parent="JbTs0OWZMiUBEUDtPIBe-8" vertex="1">
                    <mxGeometry y="26" width="160" height="26" as="geometry"/>
                </mxCell>
                <mxCell id="JbTs0OWZMiUBEUDtPIBe-10" value="" style="line;strokeWidth=1;fillColor=none;align=left;verticalAlign=middle;spacingTop=-1;spacingLeft=3;spacingRight=3;rotatable=0;labelPosition=right;points=[];portConstraint=eastwest;" parent="JbTs0OWZMiUBEUDtPIBe-8" vertex="1">
                    <mxGeometry y="52" width="160" height="8" as="geometry"/>
                </mxCell>
                <mxCell id="JbTs0OWZMiUBEUDtPIBe-11" value="+ method(type): type" style="text;strokeColor=none;fillColor=none;align=left;verticalAlign=top;spacingLeft=4;spacingRight=4;overflow=hidden;rotatable=0;points=[[0,0.5],[1,0.5]];portConstraint=eastwest;" parent="JbTs0OWZMiUBEUDtPIBe-8" vertex="1">
                    <mxGeometry y="60" width="160" height="26" as="geometry"/>
                </mxCell>
                <mxCell id="JbTs0OWZMiUBEUDtPIBe-12" value="FLinker" style="swimlane;fontStyle=1;align=center;verticalAlign=top;childLayout=stackLayout;horizontal=1;startSize=26;horizontalStack=0;resizeParent=1;resizeParentMax=0;resizeLast=0;collapsible=1;marginBottom=0;" parent="lT-WJmCvZGzixhSHDwki-1" vertex="1">
                    <mxGeometry x="540" y="396" width="240" height="86" as="geometry"/>
                </mxCell>
                <mxCell id="JbTs0OWZMiUBEUDtPIBe-13" value="FPackageFileSummary&#9;&#9;Summary;" style="text;strokeColor=none;fillColor=none;align=left;verticalAlign=top;spacingLeft=4;spacingRight=4;overflow=hidden;rotatable=0;points=[[0,0.5],[1,0.5]];portConstraint=eastwest;" parent="JbTs0OWZMiUBEUDtPIBe-12" vertex="1">
                    <mxGeometry y="26" width="240" height="26" as="geometry"/>
                </mxCell>
                <mxCell id="JbTs0OWZMiUBEUDtPIBe-14" value="" style="line;strokeWidth=1;fillColor=none;align=left;verticalAlign=middle;spacingTop=-1;spacingLeft=3;spacingRight=3;rotatable=0;labelPosition=right;points=[];portConstraint=eastwest;" parent="JbTs0OWZMiUBEUDtPIBe-12" vertex="1">
                    <mxGeometry y="52" width="240" height="8" as="geometry"/>
                </mxCell>
                <mxCell id="JbTs0OWZMiUBEUDtPIBe-15" value="+ method(type): type" style="text;strokeColor=none;fillColor=none;align=left;verticalAlign=top;spacingLeft=4;spacingRight=4;overflow=hidden;rotatable=0;points=[[0,0.5],[1,0.5]];portConstraint=eastwest;" parent="JbTs0OWZMiUBEUDtPIBe-12" vertex="1">
                    <mxGeometry y="60" width="240" height="26" as="geometry"/>
                </mxCell>
                <mxCell id="JbTs0OWZMiUBEUDtPIBe-16" value="FPackageFileSummary" style="swimlane;fontStyle=1;align=center;verticalAlign=top;childLayout=stackLayout;horizontal=1;startSize=26;horizontalStack=0;resizeParent=1;resizeParentMax=0;resizeLast=0;collapsible=1;marginBottom=0;" parent="lT-WJmCvZGzixhSHDwki-1" vertex="1">
                    <mxGeometry x="140" y="310" width="160" height="86" as="geometry"/>
                </mxCell>
                <mxCell id="JbTs0OWZMiUBEUDtPIBe-17" value="+ field: type" style="text;strokeColor=none;fillColor=none;align=left;verticalAlign=top;spacingLeft=4;spacingRight=4;overflow=hidden;rotatable=0;points=[[0,0.5],[1,0.5]];portConstraint=eastwest;" parent="JbTs0OWZMiUBEUDtPIBe-16" vertex="1">
                    <mxGeometry y="26" width="160" height="26" as="geometry"/>
                </mxCell>
                <mxCell id="JbTs0OWZMiUBEUDtPIBe-18" value="" style="line;strokeWidth=1;fillColor=none;align=left;verticalAlign=middle;spacingTop=-1;spacingLeft=3;spacingRight=3;rotatable=0;labelPosition=right;points=[];portConstraint=eastwest;" parent="JbTs0OWZMiUBEUDtPIBe-16" vertex="1">
                    <mxGeometry y="52" width="160" height="8" as="geometry"/>
                </mxCell>
                <mxCell id="JbTs0OWZMiUBEUDtPIBe-19" value="+ method(type): type" style="text;strokeColor=none;fillColor=none;align=left;verticalAlign=top;spacingLeft=4;spacingRight=4;overflow=hidden;rotatable=0;points=[[0,0.5],[1,0.5]];portConstraint=eastwest;" parent="JbTs0OWZMiUBEUDtPIBe-16" vertex="1">
                    <mxGeometry y="60" width="160" height="26" as="geometry"/>
                </mxCell>
                <mxCell id="JbTs0OWZMiUBEUDtPIBe-20" value="&lt;span class=&quot;text-dst&quot; style=&quot;margin: 0px ; padding: 0px ; border: 0px ; outline: 0px ; font-size: 16px ; vertical-align: baseline ; background: rgb(255 , 255 , 255) ; color: rgb(0 , 0 , 0) ; font-family: , &amp;#34;microsoft yahei&amp;#34; , &amp;#34;\\5fae软雅黑&amp;#34; , sans-serif&quot;&gt;虚幻程序包文件的“目录”。&lt;/span&gt;&lt;span class=&quot;text-dst&quot; style=&quot;margin: 0px ; padding: 0px ; border: 0px ; outline: 0px ; font-size: 16px ; vertical-align: baseline ; background: rgb(255 , 255 , 255) ; color: rgb(0 , 0 , 0) ; font-family: , &amp;#34;microsoft yahei&amp;#34; , &amp;#34;\\5fae软雅黑&amp;#34; , sans-serif&quot;&gt;存储在文件的顶部。&lt;/span&gt;" style="text;html=1;align=center;verticalAlign=middle;resizable=0;points=[];autosize=1;strokeColor=none;fillColor=none;" parent="lT-WJmCvZGzixhSHDwki-1" vertex="1">
                    <mxGeometry y="276" width="350" height="20" as="geometry"/>
                </mxCell>
                <mxCell id="JbTs0OWZMiUBEUDtPIBe-21" value="FObjectImport" style="swimlane;fontStyle=1;align=center;verticalAlign=top;childLayout=stackLayout;horizontal=1;startSize=26;horizontalStack=0;resizeParent=1;resizeParentMax=0;resizeLast=0;collapsible=1;marginBottom=0;" parent="lT-WJmCvZGzixhSHDwki-1" vertex="1">
                    <mxGeometry x="1470" y="320" width="160" height="86" as="geometry"/>
                </mxCell>
                <mxCell id="JbTs0OWZMiUBEUDtPIBe-22" value="+ field: type" style="text;strokeColor=none;fillColor=none;align=left;verticalAlign=top;spacingLeft=4;spacingRight=4;overflow=hidden;rotatable=0;points=[[0,0.5],[1,0.5]];portConstraint=eastwest;" parent="JbTs0OWZMiUBEUDtPIBe-21" vertex="1">
                    <mxGeometry y="26" width="160" height="26" as="geometry"/>
                </mxCell>
                <mxCell id="JbTs0OWZMiUBEUDtPIBe-23" value="" style="line;strokeWidth=1;fillColor=none;align=left;verticalAlign=middle;spacingTop=-1;spacingLeft=3;spacingRight=3;rotatable=0;labelPosition=right;points=[];portConstraint=eastwest;" parent="JbTs0OWZMiUBEUDtPIBe-21" vertex="1">
                    <mxGeometry y="52" width="160" height="8" as="geometry"/>
                </mxCell>
                <mxCell id="JbTs0OWZMiUBEUDtPIBe-24" value="+ method(type): type" style="text;strokeColor=none;fillColor=none;align=left;verticalAlign=top;spacingLeft=4;spacingRight=4;overflow=hidden;rotatable=0;points=[[0,0.5],[1,0.5]];portConstraint=eastwest;" parent="JbTs0OWZMiUBEUDtPIBe-21" vertex="1">
                    <mxGeometry y="60" width="160" height="26" as="geometry"/>
                </mxCell>
                <mxCell id="JbTs0OWZMiUBEUDtPIBe-25" value="FObjectResource" style="swimlane;fontStyle=1;align=center;verticalAlign=top;childLayout=stackLayout;horizontal=1;startSize=26;horizontalStack=0;resizeParent=1;resizeParentMax=0;resizeLast=0;collapsible=1;marginBottom=0;" parent="lT-WJmCvZGzixhSHDwki-1" vertex="1">
                    <mxGeometry x="1620" y="160" width="160" height="86" as="geometry"/>
                </mxCell>
                <mxCell id="JbTs0OWZMiUBEUDtPIBe-26" value="+ field: type" style="text;strokeColor=none;fillColor=none;align=left;verticalAlign=top;spacingLeft=4;spacingRight=4;overflow=hidden;rotatable=0;points=[[0,0.5],[1,0.5]];portConstraint=eastwest;" parent="JbTs0OWZMiUBEUDtPIBe-25" vertex="1">
                    <mxGeometry y="26" width="160" height="26" as="geometry"/>
                </mxCell>
                <mxCell id="JbTs0OWZMiUBEUDtPIBe-27" value="" style="line;strokeWidth=1;fillColor=none;align=left;verticalAlign=middle;spacingTop=-1;spacingLeft=3;spacingRight=3;rotatable=0;labelPosition=right;points=[];portConstraint=eastwest;" parent="JbTs0OWZMiUBEUDtPIBe-25" vertex="1">
                    <mxGeometry y="52" width="160" height="8" as="geometry"/>
                </mxCell>
                <mxCell id="JbTs0OWZMiUBEUDtPIBe-28" value="+ method(type): type" style="text;strokeColor=none;fillColor=none;align=left;verticalAlign=top;spacingLeft=4;spacingRight=4;overflow=hidden;rotatable=0;points=[[0,0.5],[1,0.5]];portConstraint=eastwest;" parent="JbTs0OWZMiUBEUDtPIBe-25" vertex="1">
                    <mxGeometry y="60" width="160" height="26" as="geometry"/>
                </mxCell>
                <mxCell id="JbTs0OWZMiUBEUDtPIBe-29" value="&lt;span class=&quot;text-dst&quot; style=&quot;margin: 0px ; padding: 0px ; border: 0px ; outline: 0px ; font-size: 16px ; vertical-align: baseline ; background: rgb(255 , 255 , 255) ; color: rgb(0 , 0 , 0) ; font-family: , &amp;#34;microsoft yahei&amp;#34; , &amp;#34;\\5fae软雅黑&amp;#34; , sans-serif&quot;&gt;此包引用但包含的对象的U对象资源类型。&lt;/span&gt;&lt;br style=&quot;color: rgb(0 , 0 , 0) ; font-family: , &amp;#34;microsoft yahei&amp;#34; , &amp;#34;\\5fae软雅黑&amp;#34; , sans-serif ; font-size: 16px ; background-color: rgb(255 , 255 , 255)&quot;&gt;&lt;span class=&quot;text-dst&quot; style=&quot;margin: 0px ; padding: 0px ; border: 0px ; outline: 0px ; font-size: 16px ; vertical-align: baseline ; background: rgb(255 , 255 , 255) ; color: rgb(0 , 0 , 0) ; font-family: , &amp;#34;microsoft yahei&amp;#34; , &amp;#34;\\5fae软雅黑&amp;#34; , sans-serif&quot;&gt;*在另一个套餐中。&lt;/span&gt;" style="text;html=1;align=center;verticalAlign=middle;resizable=0;points=[];autosize=1;strokeColor=none;fillColor=none;" parent="lT-WJmCvZGzixhSHDwki-1" vertex="1">
                    <mxGeometry x="1420" y="280" width="320" height="40" as="geometry"/>
                </mxCell>
                <mxCell id="JbTs0OWZMiUBEUDtPIBe-30" value="FLinkerLoad" style="swimlane;fontStyle=1;align=center;verticalAlign=top;childLayout=stackLayout;horizontal=1;startSize=26;horizontalStack=0;resizeParent=1;resizeParentMax=0;resizeLast=0;collapsible=1;marginBottom=0;" parent="lT-WJmCvZGzixhSHDwki-1" vertex="1">
                    <mxGeometry x="600" y="547" width="470" height="164" as="geometry"/>
                </mxCell>
                <mxCell id="JbTs0OWZMiUBEUDtPIBe-31" value="bool&#9;&#9;&#9;&#9;&#9;bHasFinishedInitialization:1;" style="text;strokeColor=none;fillColor=none;align=left;verticalAlign=top;spacingLeft=4;spacingRight=4;overflow=hidden;rotatable=0;points=[[0,0.5],[1,0.5]];portConstraint=eastwest;" parent="JbTs0OWZMiUBEUDtPIBe-30" vertex="1">
                    <mxGeometry y="26" width="470" height="26" as="geometry"/>
                </mxCell>
                <mxCell id="JbTs0OWZMiUBEUDtPIBe-87" value="FArchive*&#9;&#9;&#9;&#9;Loader;" style="text;strokeColor=none;fillColor=none;align=left;verticalAlign=top;spacingLeft=4;spacingRight=4;overflow=hidden;rotatable=0;points=[[0,0.5],[1,0.5]];portConstraint=eastwest;" parent="JbTs0OWZMiUBEUDtPIBe-30" vertex="1">
                    <mxGeometry y="52" width="470" height="26" as="geometry"/>
                </mxCell>
                <mxCell id="JbTs0OWZMiUBEUDtPIBe-157" value="bool&#9;&#9;&#9;&#9;&#9;bIsAsyncLoader;" style="text;strokeColor=none;fillColor=none;align=left;verticalAlign=top;spacingLeft=4;spacingRight=4;overflow=hidden;rotatable=0;points=[[0,0.5],[1,0.5]];portConstraint=eastwest;" parent="JbTs0OWZMiUBEUDtPIBe-30" vertex="1">
                    <mxGeometry y="78" width="470" height="26" as="geometry"/>
                </mxCell>
                <mxCell id="JbTs0OWZMiUBEUDtPIBe-133" value="TOptional&lt;FStructuredArchive::FRecord&gt; StructuredArchiveRootRecord;" style="text;strokeColor=none;fillColor=none;align=left;verticalAlign=top;spacingLeft=4;spacingRight=4;overflow=hidden;rotatable=0;points=[[0,0.5],[1,0.5]];portConstraint=eastwest;" vertex="1" parent="JbTs0OWZMiUBEUDtPIBe-30">
                    <mxGeometry y="104" width="470" height="26" as="geometry"/>
                </mxCell>
                <mxCell id="JbTs0OWZMiUBEUDtPIBe-32" value="" style="line;strokeWidth=1;fillColor=none;align=left;verticalAlign=middle;spacingTop=-1;spacingLeft=3;spacingRight=3;rotatable=0;labelPosition=right;points=[];portConstraint=eastwest;" parent="JbTs0OWZMiUBEUDtPIBe-30" vertex="1">
                    <mxGeometry y="130" width="470" height="8" as="geometry"/>
                </mxCell>
                <mxCell id="JbTs0OWZMiUBEUDtPIBe-33" value="+ method(type): type" style="text;strokeColor=none;fillColor=none;align=left;verticalAlign=top;spacingLeft=4;spacingRight=4;overflow=hidden;rotatable=0;points=[[0,0.5],[1,0.5]];portConstraint=eastwest;" parent="JbTs0OWZMiUBEUDtPIBe-30" vertex="1">
                    <mxGeometry y="138" width="470" height="26" as="geometry"/>
                </mxCell>
                <mxCell id="JbTs0OWZMiUBEUDtPIBe-34" value="FObjectExport " style="swimlane;fontStyle=1;align=center;verticalAlign=top;childLayout=stackLayout;horizontal=1;startSize=26;horizontalStack=0;resizeParent=1;resizeParentMax=0;resizeLast=0;collapsible=1;marginBottom=0;" parent="lT-WJmCvZGzixhSHDwki-1" vertex="1">
                    <mxGeometry x="1860" y="330" width="160" height="86" as="geometry"/>
                </mxCell>
                <mxCell id="JbTs0OWZMiUBEUDtPIBe-35" value="+ field: type" style="text;strokeColor=none;fillColor=none;align=left;verticalAlign=top;spacingLeft=4;spacingRight=4;overflow=hidden;rotatable=0;points=[[0,0.5],[1,0.5]];portConstraint=eastwest;" parent="JbTs0OWZMiUBEUDtPIBe-34" vertex="1">
                    <mxGeometry y="26" width="160" height="26" as="geometry"/>
                </mxCell>
                <mxCell id="JbTs0OWZMiUBEUDtPIBe-36" value="" style="line;strokeWidth=1;fillColor=none;align=left;verticalAlign=middle;spacingTop=-1;spacingLeft=3;spacingRight=3;rotatable=0;labelPosition=right;points=[];portConstraint=eastwest;" parent="JbTs0OWZMiUBEUDtPIBe-34" vertex="1">
                    <mxGeometry y="52" width="160" height="8" as="geometry"/>
                </mxCell>
                <mxCell id="JbTs0OWZMiUBEUDtPIBe-37" value="+ method(type): type" style="text;strokeColor=none;fillColor=none;align=left;verticalAlign=top;spacingLeft=4;spacingRight=4;overflow=hidden;rotatable=0;points=[[0,0.5],[1,0.5]];portConstraint=eastwest;" parent="JbTs0OWZMiUBEUDtPIBe-34" vertex="1">
                    <mxGeometry y="60" width="160" height="26" as="geometry"/>
                </mxCell>
                <mxCell id="JbTs0OWZMiUBEUDtPIBe-38" value="&lt;span class=&quot;text-dst&quot; style=&quot;margin: 0px ; padding: 0px ; border: 0px ; outline: 0px ; font-size: 16px ; vertical-align: baseline ; background: rgb(255 , 255 , 255) ; color: rgb(0 , 0 , 0) ; font-family: , &amp;#34;microsoft yahei&amp;#34; , &amp;#34;\\5fae软雅黑&amp;#34; , sans-serif&quot;&gt;*U此包中包含的对象的对象资源类型，并且可以。&lt;/span&gt;&lt;br style=&quot;color: rgb(0 , 0 , 0) ; font-family: , &amp;#34;microsoft yahei&amp;#34; , &amp;#34;\\5fae软雅黑&amp;#34; , sans-serif ; font-size: 16px ; background-color: rgb(255 , 255 , 255)&quot;&gt;&lt;span class=&quot;text-dst&quot; style=&quot;margin: 0px ; padding: 0px ; border: 0px ; outline: 0px ; font-size: 16px ; vertical-align: baseline ; background: rgb(255 , 255 , 255) ; color: rgb(0 , 0 , 0) ; font-family: , &amp;#34;microsoft yahei&amp;#34; , &amp;#34;\\5fae软雅黑&amp;#34; , sans-serif&quot;&gt;*被其他套餐引用。&lt;/span&gt;" style="text;html=1;align=center;verticalAlign=middle;resizable=0;points=[];autosize=1;strokeColor=none;fillColor=none;" parent="lT-WJmCvZGzixhSHDwki-1" vertex="1">
                    <mxGeometry x="1750" y="280" width="370" height="40" as="geometry"/>
                </mxCell>
                <mxCell id="JbTs0OWZMiUBEUDtPIBe-39" value="FArchiveUObject" style="swimlane;fontStyle=1;align=center;verticalAlign=top;childLayout=stackLayout;horizontal=1;startSize=26;horizontalStack=0;resizeParent=1;resizeParentMax=0;resizeLast=0;collapsible=1;marginBottom=0;" parent="lT-WJmCvZGzixhSHDwki-1" vertex="1">
                    <mxGeometry x="830" y="436" width="160" height="86" as="geometry"/>
                </mxCell>
                <mxCell id="JbTs0OWZMiUBEUDtPIBe-40" value="+ field: type" style="text;strokeColor=none;fillColor=none;align=left;verticalAlign=top;spacingLeft=4;spacingRight=4;overflow=hidden;rotatable=0;points=[[0,0.5],[1,0.5]];portConstraint=eastwest;" parent="JbTs0OWZMiUBEUDtPIBe-39" vertex="1">
                    <mxGeometry y="26" width="160" height="26" as="geometry"/>
                </mxCell>
                <mxCell id="JbTs0OWZMiUBEUDtPIBe-41" value="" style="line;strokeWidth=1;fillColor=none;align=left;verticalAlign=middle;spacingTop=-1;spacingLeft=3;spacingRight=3;rotatable=0;labelPosition=right;points=[];portConstraint=eastwest;" parent="JbTs0OWZMiUBEUDtPIBe-39" vertex="1">
                    <mxGeometry y="52" width="160" height="8" as="geometry"/>
                </mxCell>
                <mxCell id="JbTs0OWZMiUBEUDtPIBe-42" value="+ method(type): type" style="text;strokeColor=none;fillColor=none;align=left;verticalAlign=top;spacingLeft=4;spacingRight=4;overflow=hidden;rotatable=0;points=[[0,0.5],[1,0.5]];portConstraint=eastwest;" parent="JbTs0OWZMiUBEUDtPIBe-39" vertex="1">
                    <mxGeometry y="60" width="160" height="26" as="geometry"/>
                </mxCell>
                <mxCell id="JbTs0OWZMiUBEUDtPIBe-43" value="FArchive" style="swimlane;fontStyle=1;align=center;verticalAlign=top;childLayout=stackLayout;horizontal=1;startSize=26;horizontalStack=0;resizeParent=1;resizeParentMax=0;resizeLast=0;collapsible=1;marginBottom=0;" parent="lT-WJmCvZGzixhSHDwki-1" vertex="1">
                    <mxGeometry x="827" y="310" width="160" height="86" as="geometry"/>
                </mxCell>
                <mxCell id="JbTs0OWZMiUBEUDtPIBe-44" value="+ field: type" style="text;strokeColor=none;fillColor=none;align=left;verticalAlign=top;spacingLeft=4;spacingRight=4;overflow=hidden;rotatable=0;points=[[0,0.5],[1,0.5]];portConstraint=eastwest;" parent="JbTs0OWZMiUBEUDtPIBe-43" vertex="1">
                    <mxGeometry y="26" width="160" height="26" as="geometry"/>
                </mxCell>
                <mxCell id="JbTs0OWZMiUBEUDtPIBe-45" value="" style="line;strokeWidth=1;fillColor=none;align=left;verticalAlign=middle;spacingTop=-1;spacingLeft=3;spacingRight=3;rotatable=0;labelPosition=right;points=[];portConstraint=eastwest;" parent="JbTs0OWZMiUBEUDtPIBe-43" vertex="1">
                    <mxGeometry y="52" width="160" height="8" as="geometry"/>
                </mxCell>
                <mxCell id="JbTs0OWZMiUBEUDtPIBe-46" value="+ method(type): type" style="text;strokeColor=none;fillColor=none;align=left;verticalAlign=top;spacingLeft=4;spacingRight=4;overflow=hidden;rotatable=0;points=[[0,0.5],[1,0.5]];portConstraint=eastwest;" parent="JbTs0OWZMiUBEUDtPIBe-43" vertex="1">
                    <mxGeometry y="60" width="160" height="26" as="geometry"/>
                </mxCell>
                <mxCell id="JbTs0OWZMiUBEUDtPIBe-47" value="FUObjectSerializeContext" style="swimlane;fontStyle=1;align=center;verticalAlign=top;childLayout=stackLayout;horizontal=1;startSize=26;horizontalStack=0;resizeParent=1;resizeParentMax=0;resizeLast=0;collapsible=1;marginBottom=0;" parent="lT-WJmCvZGzixhSHDwki-1" vertex="1">
                    <mxGeometry x="-160" y="564" width="160" height="86" as="geometry"/>
                </mxCell>
                <mxCell id="JbTs0OWZMiUBEUDtPIBe-48" value="+ field: type" style="text;strokeColor=none;fillColor=none;align=left;verticalAlign=top;spacingLeft=4;spacingRight=4;overflow=hidden;rotatable=0;points=[[0,0.5],[1,0.5]];portConstraint=eastwest;" parent="JbTs0OWZMiUBEUDtPIBe-47" vertex="1">
                    <mxGeometry y="26" width="160" height="26" as="geometry"/>
                </mxCell>
                <mxCell id="JbTs0OWZMiUBEUDtPIBe-49" value="" style="line;strokeWidth=1;fillColor=none;align=left;verticalAlign=middle;spacingTop=-1;spacingLeft=3;spacingRight=3;rotatable=0;labelPosition=right;points=[];portConstraint=eastwest;" parent="JbTs0OWZMiUBEUDtPIBe-47" vertex="1">
                    <mxGeometry y="52" width="160" height="8" as="geometry"/>
                </mxCell>
                <mxCell id="JbTs0OWZMiUBEUDtPIBe-50" value="+ method(type): type" style="text;strokeColor=none;fillColor=none;align=left;verticalAlign=top;spacingLeft=4;spacingRight=4;overflow=hidden;rotatable=0;points=[[0,0.5],[1,0.5]];portConstraint=eastwest;" parent="JbTs0OWZMiUBEUDtPIBe-47" vertex="1">
                    <mxGeometry y="60" width="160" height="26" as="geometry"/>
                </mxCell>
                <mxCell id="JbTs0OWZMiUBEUDtPIBe-51" value="CreateLinkerAsync" style="shape=step;perimeter=stepPerimeter;whiteSpace=wrap;html=1;fixedSize=1;" parent="lT-WJmCvZGzixhSHDwki-1" vertex="1">
                    <mxGeometry x="720" y="906" width="120" height="80" as="geometry"/>
                </mxCell>
                <mxCell id="JbTs0OWZMiUBEUDtPIBe-53" value="SetSerializeContext" style="shape=step;perimeter=stepPerimeter;whiteSpace=wrap;html=1;fixedSize=1;" parent="lT-WJmCvZGzixhSHDwki-1" vertex="1">
                    <mxGeometry x="870" y="946" width="120" height="80" as="geometry"/>
                </mxCell>
                <mxCell id="JbTs0OWZMiUBEUDtPIBe-54" value="&amp;nbsp;new FLinkerLoad" style="shape=step;perimeter=stepPerimeter;whiteSpace=wrap;html=1;fixedSize=1;" parent="lT-WJmCvZGzixhSHDwki-1" vertex="1">
                    <mxGeometry x="870" y="846" width="120" height="80" as="geometry"/>
                </mxCell>
                <mxCell id="JbTs0OWZMiUBEUDtPIBe-56" value="CreateLoader" style="shape=step;perimeter=stepPerimeter;whiteSpace=wrap;html=1;fixedSize=1;" parent="lT-WJmCvZGzixhSHDwki-1" vertex="1">
                    <mxGeometry x="900" y="1106" width="120" height="80" as="geometry"/>
                </mxCell>
                <mxCell id="JbTs0OWZMiUBEUDtPIBe-57" value="Tick" style="shape=step;perimeter=stepPerimeter;whiteSpace=wrap;html=1;fixedSize=1;" parent="lT-WJmCvZGzixhSHDwki-1" vertex="1">
                    <mxGeometry x="740" y="1156" width="120" height="80" as="geometry"/>
                </mxCell>
                <mxCell id="JbTs0OWZMiUBEUDtPIBe-58" value="SerializePackageFileSummary" style="shape=step;perimeter=stepPerimeter;whiteSpace=wrap;html=1;fixedSize=1;" parent="lT-WJmCvZGzixhSHDwki-1" vertex="1">
                    <mxGeometry x="890" y="1260" width="120" height="80" as="geometry"/>
                </mxCell>
                <mxCell id="JbTs0OWZMiUBEUDtPIBe-59" value="&lt;div&gt;&amp;nbsp;&lt;span&gt;序列化包文件摘要并预先设置各种数组的大小(名称、导入和导出映射)&lt;/span&gt;&lt;/div&gt;" style="text;html=1;align=center;verticalAlign=middle;resizable=0;points=[];autosize=1;strokeColor=none;fillColor=none;" parent="lT-WJmCvZGzixhSHDwki-1" vertex="1">
                    <mxGeometry x="765" y="1260" width="390" height="20" as="geometry"/>
                </mxCell>
                <mxCell id="JbTs0OWZMiUBEUDtPIBe-60" value="是否已经完全初始化。" style="text;html=1;align=center;verticalAlign=middle;resizable=0;points=[];autosize=1;strokeColor=none;fillColor=none;" parent="lT-WJmCvZGzixhSHDwki-1" vertex="1">
                    <mxGeometry x="450" y="580" width="140" height="20" as="geometry"/>
                </mxCell>
                <mxCell id="JbTs0OWZMiUBEUDtPIBe-61" value="ELinkerStatus" style="swimlane;fontStyle=0;childLayout=stackLayout;horizontal=1;startSize=26;fillColor=none;horizontalStack=0;resizeParent=1;resizeParentMax=0;resizeLast=0;collapsible=1;marginBottom=0;" parent="lT-WJmCvZGzixhSHDwki-1" vertex="1">
                    <mxGeometry x="1150" y="546" width="140" height="104" as="geometry"/>
                </mxCell>
                <mxCell id="JbTs0OWZMiUBEUDtPIBe-62" value="LINKER_Failed" style="text;strokeColor=none;fillColor=none;align=left;verticalAlign=top;spacingLeft=4;spacingRight=4;overflow=hidden;rotatable=0;points=[[0,0.5],[1,0.5]];portConstraint=eastwest;" parent="JbTs0OWZMiUBEUDtPIBe-61" vertex="1">
                    <mxGeometry y="26" width="140" height="26" as="geometry"/>
                </mxCell>
                <mxCell id="JbTs0OWZMiUBEUDtPIBe-63" value="LINKER_Loaded" style="text;strokeColor=none;fillColor=none;align=left;verticalAlign=top;spacingLeft=4;spacingRight=4;overflow=hidden;rotatable=0;points=[[0,0.5],[1,0.5]];portConstraint=eastwest;" parent="JbTs0OWZMiUBEUDtPIBe-61" vertex="1">
                    <mxGeometry y="52" width="140" height="26" as="geometry"/>
                </mxCell>
                <mxCell id="JbTs0OWZMiUBEUDtPIBe-64" value="LINKER_TimedOut" style="text;strokeColor=none;fillColor=none;align=left;verticalAlign=top;spacingLeft=4;spacingRight=4;overflow=hidden;rotatable=0;points=[[0,0.5],[1,0.5]];portConstraint=eastwest;" parent="JbTs0OWZMiUBEUDtPIBe-61" vertex="1">
                    <mxGeometry y="78" width="140" height="26" as="geometry"/>
                </mxCell>
                <mxCell id="JbTs0OWZMiUBEUDtPIBe-65" value="加载时出错" style="text;html=1;align=center;verticalAlign=middle;resizable=0;points=[];autosize=1;strokeColor=none;fillColor=none;" parent="lT-WJmCvZGzixhSHDwki-1" vertex="1">
                    <mxGeometry x="1290" y="575" width="80" height="20" as="geometry"/>
                </mxCell>
                <mxCell id="JbTs0OWZMiUBEUDtPIBe-66" value="操作成功完成" style="text;html=1;align=center;verticalAlign=middle;resizable=0;points=[];autosize=1;strokeColor=none;fillColor=none;" parent="lT-WJmCvZGzixhSHDwki-1" vertex="1">
                    <mxGeometry x="1290" y="600" width="90" height="20" as="geometry"/>
                </mxCell>
                <mxCell id="JbTs0OWZMiUBEUDtPIBe-67" value="手术花费的时间超过了规定。" style="text;html=1;align=center;verticalAlign=middle;resizable=0;points=[];autosize=1;strokeColor=none;fillColor=none;" parent="lT-WJmCvZGzixhSHDwki-1" vertex="1">
                    <mxGeometry x="1290" y="630" width="170" height="20" as="geometry"/>
                </mxCell>
                <mxCell id="JbTs0OWZMiUBEUDtPIBe-68" value="每帧完成一部分，不能超过规定时间" style="text;html=1;align=center;verticalAlign=middle;resizable=0;points=[];autosize=1;strokeColor=none;fillColor=none;" parent="lT-WJmCvZGzixhSHDwki-1" vertex="1">
                    <mxGeometry x="510" y="1196" width="210" height="20" as="geometry"/>
                </mxCell>
                <mxCell id="JbTs0OWZMiUBEUDtPIBe-69" value="EDL 的开启和开关有影响" style="text;html=1;align=center;verticalAlign=middle;resizable=0;points=[];autosize=1;strokeColor=none;fillColor=none;" parent="lT-WJmCvZGzixhSHDwki-1" vertex="1">
                    <mxGeometry x="525" y="1146" width="150" height="20" as="geometry"/>
                </mxCell>
                <mxCell id="JbTs0OWZMiUBEUDtPIBe-70" value="没有完成都会返回&amp;nbsp; timedout，完成会返回loaded" style="text;html=1;align=center;verticalAlign=middle;resizable=0;points=[];autosize=1;strokeColor=none;fillColor=none;" parent="lT-WJmCvZGzixhSHDwki-1" vertex="1">
                    <mxGeometry x="450" y="1226" width="270" height="20" as="geometry"/>
                </mxCell>
                <mxCell id="JbTs0OWZMiUBEUDtPIBe-71" value="创建用于序列化内容的加载器" style="text;html=1;align=center;verticalAlign=middle;resizable=0;points=[];autosize=1;strokeColor=none;fillColor=none;" parent="lT-WJmCvZGzixhSHDwki-1" vertex="1">
                    <mxGeometry x="845" y="1076" width="170" height="20" as="geometry"/>
                </mxCell>
                <mxCell id="JbTs0OWZMiUBEUDtPIBe-73" value="FArchiveFormatterType" style="swimlane;fontStyle=1;align=center;verticalAlign=top;childLayout=stackLayout;horizontal=1;startSize=26;horizontalStack=0;resizeParent=1;resizeParentMax=0;resizeLast=0;collapsible=1;marginBottom=0;" parent="lT-WJmCvZGzixhSHDwki-1" vertex="1">
                    <mxGeometry x="3960" y="674" width="160" height="86" as="geometry"/>
                </mxCell>
                <mxCell id="JbTs0OWZMiUBEUDtPIBe-74" value="+ field: type" style="text;strokeColor=none;fillColor=none;align=left;verticalAlign=top;spacingLeft=4;spacingRight=4;overflow=hidden;rotatable=0;points=[[0,0.5],[1,0.5]];portConstraint=eastwest;" parent="JbTs0OWZMiUBEUDtPIBe-73" vertex="1">
                    <mxGeometry y="26" width="160" height="26" as="geometry"/>
                </mxCell>
                <mxCell id="JbTs0OWZMiUBEUDtPIBe-75" value="" style="line;strokeWidth=1;fillColor=none;align=left;verticalAlign=middle;spacingTop=-1;spacingLeft=3;spacingRight=3;rotatable=0;labelPosition=right;points=[];portConstraint=eastwest;" parent="JbTs0OWZMiUBEUDtPIBe-73" vertex="1">
                    <mxGeometry y="52" width="160" height="8" as="geometry"/>
                </mxCell>
                <mxCell id="JbTs0OWZMiUBEUDtPIBe-76" value="+ method(type): type" style="text;strokeColor=none;fillColor=none;align=left;verticalAlign=top;spacingLeft=4;spacingRight=4;overflow=hidden;rotatable=0;points=[[0,0.5],[1,0.5]];portConstraint=eastwest;" parent="JbTs0OWZMiUBEUDtPIBe-73" vertex="1">
                    <mxGeometry y="60" width="160" height="26" as="geometry"/>
                </mxCell>
                <mxCell id="JbTs0OWZMiUBEUDtPIBe-77" value="typedef FStructuredArchiveFormatter FArchiveFormatterType;" style="text;html=1;align=center;verticalAlign=middle;resizable=0;points=[];autosize=1;strokeColor=none;fillColor=none;" parent="lT-WJmCvZGzixhSHDwki-1" vertex="1">
                    <mxGeometry x="3920" y="650" width="340" height="20" as="geometry"/>
                </mxCell>
                <mxCell id="JbTs0OWZMiUBEUDtPIBe-78" value="FStructuredArchiveFormatter" style="swimlane;fontStyle=1;align=center;verticalAlign=top;childLayout=stackLayout;horizontal=1;startSize=26;horizontalStack=0;resizeParent=1;resizeParentMax=0;resizeLast=0;collapsible=1;marginBottom=0;" parent="lT-WJmCvZGzixhSHDwki-1" vertex="1">
                    <mxGeometry x="3740" y="676" width="160" height="86" as="geometry"/>
                </mxCell>
                <mxCell id="JbTs0OWZMiUBEUDtPIBe-79" value="+ field: type" style="text;strokeColor=none;fillColor=none;align=left;verticalAlign=top;spacingLeft=4;spacingRight=4;overflow=hidden;rotatable=0;points=[[0,0.5],[1,0.5]];portConstraint=eastwest;" parent="JbTs0OWZMiUBEUDtPIBe-78" vertex="1">
                    <mxGeometry y="26" width="160" height="26" as="geometry"/>
                </mxCell>
                <mxCell id="JbTs0OWZMiUBEUDtPIBe-80" value="" style="line;strokeWidth=1;fillColor=none;align=left;verticalAlign=middle;spacingTop=-1;spacingLeft=3;spacingRight=3;rotatable=0;labelPosition=right;points=[];portConstraint=eastwest;" parent="JbTs0OWZMiUBEUDtPIBe-78" vertex="1">
                    <mxGeometry y="52" width="160" height="8" as="geometry"/>
                </mxCell>
                <mxCell id="JbTs0OWZMiUBEUDtPIBe-81" value="+ method(type): type" style="text;strokeColor=none;fillColor=none;align=left;verticalAlign=top;spacingLeft=4;spacingRight=4;overflow=hidden;rotatable=0;points=[[0,0.5],[1,0.5]];portConstraint=eastwest;" parent="JbTs0OWZMiUBEUDtPIBe-78" vertex="1">
                    <mxGeometry y="60" width="160" height="26" as="geometry"/>
                </mxCell>
                <mxCell id="JbTs0OWZMiUBEUDtPIBe-82" value="&lt;div&gt;*接口格式化数据到和从底层存档。验证该类上的方法是否正确&lt;/div&gt;&lt;div&gt;&lt;br&gt;&lt;/div&gt;&lt;div&gt;*与当前存档状态(例如。EnterObject/LeaveObject调用被检查是否匹配)，不需要&lt;/div&gt;&lt;div&gt;&lt;br&gt;&lt;/div&gt;&lt;div&gt;*由实现验证。&lt;/div&gt;&lt;div&gt;&lt;br&gt;&lt;/div&gt;&lt;div&gt;*&lt;/div&gt;&lt;div&gt;&lt;br&gt;&lt;/div&gt;&lt;div&gt;*任何带有_TextOnly后缀的函数都是在读取文本存档时实现的&lt;/div&gt;&lt;div&gt;&lt;br&gt;&lt;/div&gt;&lt;div&gt;*一个完整定义的文档树，并允许查询在读取时不可用的附加属性&lt;/div&gt;&lt;div&gt;&lt;br&gt;&lt;/div&gt;&lt;div&gt;*一个纯粹的二进制存档。如果调用二进制存档，这些函数将断言。&lt;/div&gt;" style="text;html=1;align=center;verticalAlign=middle;resizable=0;points=[];autosize=1;strokeColor=none;fillColor=none;" parent="lT-WJmCvZGzixhSHDwki-1" vertex="1">
                    <mxGeometry x="-670" y="503" width="440" height="190" as="geometry"/>
                </mxCell>
                <mxCell id="JbTs0OWZMiUBEUDtPIBe-88" value="实际从磁盘读取原始数据的归档。" style="text;html=1;align=center;verticalAlign=middle;resizable=0;points=[];autosize=1;strokeColor=none;fillColor=none;" parent="lT-WJmCvZGzixhSHDwki-1" vertex="1">
                    <mxGeometry x="390" y="606" width="200" height="20" as="geometry"/>
                </mxCell>
                <mxCell id="JbTs0OWZMiUBEUDtPIBe-89" value="new FAsyncArchive" style="shape=step;perimeter=stepPerimeter;whiteSpace=wrap;html=1;fixedSize=1;" parent="lT-WJmCvZGzixhSHDwki-1" vertex="1">
                    <mxGeometry x="1070" y="1056" width="120" height="80" as="geometry"/>
                </mxCell>
                <mxCell id="JbTs0OWZMiUBEUDtPIBe-90" value="CreateFileReader" style="shape=step;perimeter=stepPerimeter;whiteSpace=wrap;html=1;fixedSize=1;" parent="lT-WJmCvZGzixhSHDwki-1" vertex="1">
                    <mxGeometry x="1070" y="1136" width="120" height="80" as="geometry"/>
                </mxCell>
                <mxCell id="JbTs0OWZMiUBEUDtPIBe-91" value="FArchiveFileReaderGeneric" style="swimlane;fontStyle=1;align=center;verticalAlign=top;childLayout=stackLayout;horizontal=1;startSize=26;horizontalStack=0;resizeParent=1;resizeParentMax=0;resizeLast=0;collapsible=1;marginBottom=0;" parent="lT-WJmCvZGzixhSHDwki-1" vertex="1">
                    <mxGeometry x="2137" y="514" width="160" height="86" as="geometry"/>
                </mxCell>
                <mxCell id="JbTs0OWZMiUBEUDtPIBe-92" value="+ field: type" style="text;strokeColor=none;fillColor=none;align=left;verticalAlign=top;spacingLeft=4;spacingRight=4;overflow=hidden;rotatable=0;points=[[0,0.5],[1,0.5]];portConstraint=eastwest;" parent="JbTs0OWZMiUBEUDtPIBe-91" vertex="1">
                    <mxGeometry y="26" width="160" height="26" as="geometry"/>
                </mxCell>
                <mxCell id="JbTs0OWZMiUBEUDtPIBe-93" value="" style="line;strokeWidth=1;fillColor=none;align=left;verticalAlign=middle;spacingTop=-1;spacingLeft=3;spacingRight=3;rotatable=0;labelPosition=right;points=[];portConstraint=eastwest;" parent="JbTs0OWZMiUBEUDtPIBe-91" vertex="1">
                    <mxGeometry y="52" width="160" height="8" as="geometry"/>
                </mxCell>
                <mxCell id="JbTs0OWZMiUBEUDtPIBe-94" value="+ method(type): type" style="text;strokeColor=none;fillColor=none;align=left;verticalAlign=top;spacingLeft=4;spacingRight=4;overflow=hidden;rotatable=0;points=[[0,0.5],[1,0.5]];portConstraint=eastwest;" parent="JbTs0OWZMiUBEUDtPIBe-91" vertex="1">
                    <mxGeometry y="60" width="160" height="26" as="geometry"/>
                </mxCell>
                <mxCell id="JbTs0OWZMiUBEUDtPIBe-96" value="封装原生文件的读取" style="text;html=1;align=center;verticalAlign=middle;resizable=0;points=[];autosize=1;strokeColor=none;fillColor=none;" parent="lT-WJmCvZGzixhSHDwki-1" vertex="1">
                    <mxGeometry x="2100" y="471" width="120" height="20" as="geometry"/>
                </mxCell>
                <mxCell id="JbTs0OWZMiUBEUDtPIBe-97" value="FBufferReaderBase" style="html=1;" parent="lT-WJmCvZGzixhSHDwki-1" vertex="1">
                    <mxGeometry x="1830" y="685" width="110" height="50" as="geometry"/>
                </mxCell>
                <mxCell id="JbTs0OWZMiUBEUDtPIBe-98" value="FBufferReaderWithSHA" style="whiteSpace=wrap;html=1;" parent="lT-WJmCvZGzixhSHDwki-1" vertex="1">
                    <mxGeometry x="1900" y="770" width="120" height="60" as="geometry"/>
                </mxCell>
                <mxCell id="JbTs0OWZMiUBEUDtPIBe-99" value="FBufferReader" style="whiteSpace=wrap;html=1;" parent="lT-WJmCvZGzixhSHDwki-1" vertex="1">
                    <mxGeometry x="1750" y="770" width="120" height="60" as="geometry"/>
                </mxCell>
                <mxCell id="JbTs0OWZMiUBEUDtPIBe-101" value="&lt;div&gt;*管理底层FStructuredArchiveFormatter的状态，并提供一个对结构化归档进行读写的一致API。&lt;/div&gt;&lt;div&gt;&lt;br&gt;&lt;/div&gt;&lt;div&gt;＊&lt;/div&gt;&lt;div&gt;&lt;br&gt;&lt;/div&gt;&lt;div&gt;从接口的角度来看，对存档的读和写都是“只转发”的。没有一点是可能的&lt;/div&gt;&lt;div&gt;&lt;br&gt;&lt;/div&gt;&lt;div&gt;*需要寻找。&lt;/div&gt;" style="text;html=1;align=center;verticalAlign=middle;resizable=0;points=[];autosize=1;strokeColor=none;fillColor=none;" parent="lT-WJmCvZGzixhSHDwki-1" vertex="1">
                    <mxGeometry x="2970" y="596" width="520" height="100" as="geometry"/>
                </mxCell>
                <mxCell id="JbTs0OWZMiUBEUDtPIBe-103" value="表示槽在层次结构中的位置。" style="text;html=1;align=center;verticalAlign=middle;resizable=0;points=[];autosize=1;strokeColor=none;fillColor=none;" parent="lT-WJmCvZGzixhSHDwki-1" vertex="1">
                    <mxGeometry x="2570" y="510" width="170" height="20" as="geometry"/>
                </mxCell>
                <mxCell id="JbTs0OWZMiUBEUDtPIBe-104" value="FSlotPosition" style="swimlane;fontStyle=0;childLayout=stackLayout;horizontal=1;startSize=26;fillColor=none;horizontalStack=0;resizeParent=1;resizeParentMax=0;resizeLast=0;collapsible=1;marginBottom=0;" parent="lT-WJmCvZGzixhSHDwki-1" vertex="1">
                    <mxGeometry x="2585" y="555" width="140" height="104" as="geometry"/>
                </mxCell>
                <mxCell id="JbTs0OWZMiUBEUDtPIBe-105" value="int32 Depth;" style="text;strokeColor=none;fillColor=none;align=left;verticalAlign=top;spacingLeft=4;spacingRight=4;overflow=hidden;rotatable=0;points=[[0,0.5],[1,0.5]];portConstraint=eastwest;" parent="JbTs0OWZMiUBEUDtPIBe-104" vertex="1">
                    <mxGeometry y="26" width="140" height="26" as="geometry"/>
                </mxCell>
                <mxCell id="JbTs0OWZMiUBEUDtPIBe-106" value="FElementId ElementId;" style="text;strokeColor=none;fillColor=none;align=left;verticalAlign=top;spacingLeft=4;spacingRight=4;overflow=hidden;rotatable=0;points=[[0,0.5],[1,0.5]];portConstraint=eastwest;" parent="JbTs0OWZMiUBEUDtPIBe-104" vertex="1">
                    <mxGeometry y="52" width="140" height="26" as="geometry"/>
                </mxCell>
                <mxCell id="JbTs0OWZMiUBEUDtPIBe-107" value="+ field: type" style="text;strokeColor=none;fillColor=none;align=left;verticalAlign=top;spacingLeft=4;spacingRight=4;overflow=hidden;rotatable=0;points=[[0,0.5],[1,0.5]];portConstraint=eastwest;" parent="JbTs0OWZMiUBEUDtPIBe-104" vertex="1">
                    <mxGeometry y="78" width="140" height="26" as="geometry"/>
                </mxCell>
                <mxCell id="JbTs0OWZMiUBEUDtPIBe-112" value="FElementId" style="swimlane;fontStyle=0;childLayout=stackLayout;horizontal=1;startSize=26;fillColor=none;horizontalStack=0;resizeParent=1;resizeParentMax=0;resizeLast=0;collapsible=1;marginBottom=0;" parent="lT-WJmCvZGzixhSHDwki-1" vertex="1">
                    <mxGeometry x="2820" y="252" width="140" height="52" as="geometry"/>
                </mxCell>
                <mxCell id="JbTs0OWZMiUBEUDtPIBe-113" value="uint32 Id = 0;" style="text;strokeColor=none;fillColor=none;align=left;verticalAlign=top;spacingLeft=4;spacingRight=4;overflow=hidden;rotatable=0;points=[[0,0.5],[1,0.5]];portConstraint=eastwest;" parent="JbTs0OWZMiUBEUDtPIBe-112" vertex="1">
                    <mxGeometry y="26" width="140" height="26" as="geometry"/>
                </mxCell>
                <mxCell id="JbTs0OWZMiUBEUDtPIBe-116" value="FSlotBase" style="swimlane;fontStyle=0;childLayout=stackLayout;horizontal=1;startSize=26;fillColor=none;horizontalStack=0;resizeParent=1;resizeParentMax=0;resizeLast=0;collapsible=1;marginBottom=0;" parent="lT-WJmCvZGzixhSHDwki-1" vertex="1">
                    <mxGeometry x="2555" y="696" width="210" height="104" as="geometry"/>
                </mxCell>
                <mxCell id="JbTs0OWZMiUBEUDtPIBe-117" value="FStructuredArchive&amp; Ar;" style="text;strokeColor=none;fillColor=none;align=left;verticalAlign=top;spacingLeft=4;spacingRight=4;overflow=hidden;rotatable=0;points=[[0,0.5],[1,0.5]];portConstraint=eastwest;" parent="JbTs0OWZMiUBEUDtPIBe-116" vertex="1">
                    <mxGeometry y="26" width="210" height="26" as="geometry"/>
                </mxCell>
                <mxCell id="JbTs0OWZMiUBEUDtPIBe-118" value="+ field: type" style="text;strokeColor=none;fillColor=none;align=left;verticalAlign=top;spacingLeft=4;spacingRight=4;overflow=hidden;rotatable=0;points=[[0,0.5],[1,0.5]];portConstraint=eastwest;" parent="JbTs0OWZMiUBEUDtPIBe-116" vertex="1">
                    <mxGeometry y="52" width="210" height="26" as="geometry"/>
                </mxCell>
                <mxCell id="JbTs0OWZMiUBEUDtPIBe-119" value="+ field: type" style="text;strokeColor=none;fillColor=none;align=left;verticalAlign=top;spacingLeft=4;spacingRight=4;overflow=hidden;rotatable=0;points=[[0,0.5],[1,0.5]];portConstraint=eastwest;" parent="JbTs0OWZMiUBEUDtPIBe-116" vertex="1">
                    <mxGeometry y="78" width="210" height="26" as="geometry"/>
                </mxCell>
                <mxCell id="JbTs0OWZMiUBEUDtPIBe-120" value="EElementType" style="swimlane;fontStyle=0;childLayout=stackLayout;horizontal=1;startSize=26;fillColor=none;horizontalStack=0;resizeParent=1;resizeParentMax=0;resizeLast=0;collapsible=1;marginBottom=0;" parent="lT-WJmCvZGzixhSHDwki-1" vertex="1">
                    <mxGeometry x="3000" y="254" width="140" height="182" as="geometry"/>
                </mxCell>
                <mxCell id="JbTs0OWZMiUBEUDtPIBe-121" value="Root" style="text;strokeColor=none;fillColor=none;align=left;verticalAlign=top;spacingLeft=4;spacingRight=4;overflow=hidden;rotatable=0;points=[[0,0.5],[1,0.5]];portConstraint=eastwest;" parent="JbTs0OWZMiUBEUDtPIBe-120" vertex="1">
                    <mxGeometry y="26" width="140" height="26" as="geometry"/>
                </mxCell>
                <mxCell id="JbTs0OWZMiUBEUDtPIBe-124" value="Record" style="text;strokeColor=none;fillColor=none;align=left;verticalAlign=top;spacingLeft=4;spacingRight=4;overflow=hidden;rotatable=0;points=[[0,0.5],[1,0.5]];portConstraint=eastwest;" parent="JbTs0OWZMiUBEUDtPIBe-120" vertex="1">
                    <mxGeometry y="52" width="140" height="26" as="geometry"/>
                </mxCell>
                <mxCell id="JbTs0OWZMiUBEUDtPIBe-126" value="Array" style="text;strokeColor=none;fillColor=none;align=left;verticalAlign=top;spacingLeft=4;spacingRight=4;overflow=hidden;rotatable=0;points=[[0,0.5],[1,0.5]];portConstraint=eastwest;" parent="JbTs0OWZMiUBEUDtPIBe-120" vertex="1">
                    <mxGeometry y="78" width="140" height="26" as="geometry"/>
                </mxCell>
                <mxCell id="JbTs0OWZMiUBEUDtPIBe-125" value="Stream" style="text;strokeColor=none;fillColor=none;align=left;verticalAlign=top;spacingLeft=4;spacingRight=4;overflow=hidden;rotatable=0;points=[[0,0.5],[1,0.5]];portConstraint=eastwest;" parent="JbTs0OWZMiUBEUDtPIBe-120" vertex="1">
                    <mxGeometry y="104" width="140" height="26" as="geometry"/>
                </mxCell>
                <mxCell id="JbTs0OWZMiUBEUDtPIBe-122" value="Map" style="text;strokeColor=none;fillColor=none;align=left;verticalAlign=top;spacingLeft=4;spacingRight=4;overflow=hidden;rotatable=0;points=[[0,0.5],[1,0.5]];portConstraint=eastwest;" parent="JbTs0OWZMiUBEUDtPIBe-120" vertex="1">
                    <mxGeometry y="130" width="140" height="26" as="geometry"/>
                </mxCell>
                <mxCell id="JbTs0OWZMiUBEUDtPIBe-123" value="AttributedValue" style="text;strokeColor=none;fillColor=none;align=left;verticalAlign=top;spacingLeft=4;spacingRight=4;overflow=hidden;rotatable=0;points=[[0,0.5],[1,0.5]];portConstraint=eastwest;" parent="JbTs0OWZMiUBEUDtPIBe-120" vertex="1">
                    <mxGeometry y="156" width="140" height="26" as="geometry"/>
                </mxCell>
                <mxCell id="JbTs0OWZMiUBEUDtPIBe-128" value="EEnteringAttributeState" style="swimlane;fontStyle=0;childLayout=stackLayout;horizontal=1;startSize=26;fillColor=none;horizontalStack=0;resizeParent=1;resizeParentMax=0;resizeLast=0;collapsible=1;marginBottom=0;" parent="lT-WJmCvZGzixhSHDwki-1" vertex="1">
                    <mxGeometry x="3210" y="250" width="140" height="78" as="geometry"/>
                </mxCell>
                <mxCell id="JbTs0OWZMiUBEUDtPIBe-129" value="NotEnteringAttribute" style="text;strokeColor=none;fillColor=none;align=left;verticalAlign=top;spacingLeft=4;spacingRight=4;overflow=hidden;rotatable=0;points=[[0,0.5],[1,0.5]];portConstraint=eastwest;" parent="JbTs0OWZMiUBEUDtPIBe-128" vertex="1">
                    <mxGeometry y="26" width="140" height="26" as="geometry"/>
                </mxCell>
                <mxCell id="JbTs0OWZMiUBEUDtPIBe-130" value="EnteringAttribute" style="text;strokeColor=none;fillColor=none;align=left;verticalAlign=top;spacingLeft=4;spacingRight=4;overflow=hidden;rotatable=0;points=[[0,0.5],[1,0.5]];portConstraint=eastwest;" parent="JbTs0OWZMiUBEUDtPIBe-128" vertex="1">
                    <mxGeometry y="52" width="140" height="26" as="geometry"/>
                </mxCell>
                <mxCell id="JbTs0OWZMiUBEUDtPIBe-136" value="&lt;div&gt;*在存档中包含一个值;字段或数组/map元素。一个插槽不知道它的名字或位置，&lt;/div&gt;&lt;div&gt;&lt;br&gt;&lt;/div&gt;&lt;div&gt;*和只能有一个值序列化到它。该值可以是一个文字(例如。Int, float)或复合对象&lt;/div&gt;&lt;div&gt;&lt;br&gt;&lt;/div&gt;&lt;div&gt;*(如。对象,数组,地图)。&lt;/div&gt;" style="text;html=1;align=center;verticalAlign=middle;resizable=0;points=[];autosize=1;strokeColor=none;fillColor=none;" parent="lT-WJmCvZGzixhSHDwki-1" vertex="1">
                    <mxGeometry x="2167" y="1100" width="430" height="80" as="geometry"/>
                </mxCell>
                <mxCell id="JbTs0OWZMiUBEUDtPIBe-127" value="记录" style="text;html=1;align=center;verticalAlign=middle;resizable=0;points=[];autosize=1;strokeColor=none;fillColor=none;" parent="lT-WJmCvZGzixhSHDwki-1" vertex="1">
                    <mxGeometry x="3080" y="306" width="140" height="20" as="geometry"/>
                </mxCell>
                <mxCell id="JbTs0OWZMiUBEUDtPIBe-137" value="FStructuredArchive" style="swimlane;fontStyle=1;align=center;verticalAlign=top;childLayout=stackLayout;horizontal=1;startSize=26;horizontalStack=0;resizeParent=1;resizeParentMax=0;resizeLast=0;collapsible=1;marginBottom=0;" parent="lT-WJmCvZGzixhSHDwki-1" vertex="1">
                    <mxGeometry x="3020" y="707" width="510" height="112" as="geometry"/>
                </mxCell>
                <mxCell id="JbTs0OWZMiUBEUDtPIBe-138" value="FArchiveFormatterType&amp; Formatter;" style="text;strokeColor=none;fillColor=none;align=left;verticalAlign=top;spacingLeft=4;spacingRight=4;overflow=hidden;rotatable=0;points=[[0,0.5],[1,0.5]];portConstraint=eastwest;" parent="JbTs0OWZMiUBEUDtPIBe-137" vertex="1">
                    <mxGeometry y="26" width="510" height="26" as="geometry"/>
                </mxCell>
                <mxCell id="JbTs0OWZMiUBEUDtPIBe-52" value="TNamedValue&lt;T&gt; MakeNamedValue(FArchiveFieldName Name, T&amp; Value)" style="text;strokeColor=none;fillColor=none;align=left;verticalAlign=top;spacingLeft=4;spacingRight=4;overflow=hidden;rotatable=0;points=[[0,0.5],[1,0.5]];portConstraint=eastwest;" vertex="1" parent="JbTs0OWZMiUBEUDtPIBe-137">
                    <mxGeometry y="52" width="510" height="26" as="geometry"/>
                </mxCell>
                <mxCell id="JbTs0OWZMiUBEUDtPIBe-139" value="" style="line;strokeWidth=1;fillColor=none;align=left;verticalAlign=middle;spacingTop=-1;spacingLeft=3;spacingRight=3;rotatable=0;labelPosition=right;points=[];portConstraint=eastwest;" parent="JbTs0OWZMiUBEUDtPIBe-137" vertex="1">
                    <mxGeometry y="78" width="510" height="8" as="geometry"/>
                </mxCell>
                <mxCell id="JbTs0OWZMiUBEUDtPIBe-140" value="void SetScope(UE4StructuredArchive_Private::FSlotPosition Slot);" style="text;strokeColor=none;fillColor=none;align=left;verticalAlign=top;spacingLeft=4;spacingRight=4;overflow=hidden;rotatable=0;points=[[0,0.5],[1,0.5]];portConstraint=eastwest;" parent="JbTs0OWZMiUBEUDtPIBe-137" vertex="1">
                    <mxGeometry y="86" width="510" height="26" as="geometry"/>
                </mxCell>
                <mxCell id="JbTs0OWZMiUBEUDtPIBe-141" value="FStructuredArchiveRecord" style="html=1;" parent="lT-WJmCvZGzixhSHDwki-1" vertex="1">
                    <mxGeometry x="2465" y="842" width="110" height="50" as="geometry"/>
                </mxCell>
                <mxCell id="JbTs0OWZMiUBEUDtPIBe-142" value="FStructuredArchiveArray" style="whiteSpace=wrap;html=1;" parent="lT-WJmCvZGzixhSHDwki-1" vertex="1">
                    <mxGeometry x="2605" y="846" width="120" height="60" as="geometry"/>
                </mxCell>
                <mxCell id="JbTs0OWZMiUBEUDtPIBe-143" value="FStructuredArchiveStream" style="whiteSpace=wrap;html=1;" parent="lT-WJmCvZGzixhSHDwki-1" vertex="1">
                    <mxGeometry x="2725" y="856" width="120" height="60" as="geometry"/>
                </mxCell>
                <mxCell id="JbTs0OWZMiUBEUDtPIBe-144" value="FStructuredArchiveMap" style="whiteSpace=wrap;html=1;" parent="lT-WJmCvZGzixhSHDwki-1" vertex="1">
                    <mxGeometry x="2850" y="856" width="120" height="60" as="geometry"/>
                </mxCell>
                <mxCell id="JbTs0OWZMiUBEUDtPIBe-145" value="&lt;span style=&quot;font-weight: 700&quot;&gt;FStructuredArchiveSlot&lt;/span&gt;" style="whiteSpace=wrap;html=1;" parent="lT-WJmCvZGzixhSHDwki-1" vertex="1">
                    <mxGeometry x="2320" y="836" width="120" height="60" as="geometry"/>
                </mxCell>
                <mxCell id="JbTs0OWZMiUBEUDtPIBe-146" value="引用实际将数据写入底层归档的格式化程序" style="text;html=1;align=center;verticalAlign=middle;resizable=0;points=[];autosize=1;strokeColor=none;fillColor=none;" parent="lT-WJmCvZGzixhSHDwki-1" vertex="1">
                    <mxGeometry x="3400" y="738" width="240" height="20" as="geometry"/>
                </mxCell>
                <mxCell id="JbTs0OWZMiUBEUDtPIBe-147" value="FBinaryArchiveFormatter" style="whiteSpace=wrap;html=1;" parent="lT-WJmCvZGzixhSHDwki-1" vertex="1">
                    <mxGeometry x="3742" y="782" width="120" height="60" as="geometry"/>
                </mxCell>
                <mxCell id="JbTs0OWZMiUBEUDtPIBe-149" value="&lt;div&gt;*类似于FMemoryReader，但可以内部&lt;/div&gt;&lt;div&gt;&lt;br&gt;&lt;/div&gt;&lt;div&gt;*管理缓冲区的内存。&lt;/div&gt;" style="text;html=1;align=center;verticalAlign=middle;resizable=0;points=[];autosize=1;strokeColor=none;fillColor=none;" parent="lT-WJmCvZGzixhSHDwki-1" vertex="1">
                    <mxGeometry x="1550" y="770" width="220" height="50" as="geometry"/>
                </mxCell>
                <mxCell id="JbTs0OWZMiUBEUDtPIBe-152" value="FAsyncArchive" style="swimlane;fontStyle=1;align=center;verticalAlign=top;childLayout=stackLayout;horizontal=1;startSize=26;horizontalStack=0;resizeParent=1;resizeParentMax=0;resizeLast=0;collapsible=1;marginBottom=0;" parent="lT-WJmCvZGzixhSHDwki-1" vertex="1">
                    <mxGeometry x="3250" y="1243" width="160" height="86" as="geometry"/>
                </mxCell>
                <mxCell id="JbTs0OWZMiUBEUDtPIBe-153" value="+ field: type" style="text;strokeColor=none;fillColor=none;align=left;verticalAlign=top;spacingLeft=4;spacingRight=4;overflow=hidden;rotatable=0;points=[[0,0.5],[1,0.5]];portConstraint=eastwest;" parent="JbTs0OWZMiUBEUDtPIBe-152" vertex="1">
                    <mxGeometry y="26" width="160" height="26" as="geometry"/>
                </mxCell>
                <mxCell id="JbTs0OWZMiUBEUDtPIBe-154" value="" style="line;strokeWidth=1;fillColor=none;align=left;verticalAlign=middle;spacingTop=-1;spacingLeft=3;spacingRight=3;rotatable=0;labelPosition=right;points=[];portConstraint=eastwest;" parent="JbTs0OWZMiUBEUDtPIBe-152" vertex="1">
                    <mxGeometry y="52" width="160" height="8" as="geometry"/>
                </mxCell>
                <mxCell id="JbTs0OWZMiUBEUDtPIBe-155" value="+ method(type): type" style="text;strokeColor=none;fillColor=none;align=left;verticalAlign=top;spacingLeft=4;spacingRight=4;overflow=hidden;rotatable=0;points=[[0,0.5],[1,0.5]];portConstraint=eastwest;" parent="JbTs0OWZMiUBEUDtPIBe-152" vertex="1">
                    <mxGeometry y="60" width="160" height="26" as="geometry"/>
                </mxCell>
                <mxCell id="JbTs0OWZMiUBEUDtPIBe-156" value="如果Loader为FAsyncArchive，则为True" style="text;html=1;align=center;verticalAlign=middle;resizable=0;points=[];autosize=1;strokeColor=none;fillColor=none;" parent="lT-WJmCvZGzixhSHDwki-1" vertex="1">
                    <mxGeometry x="360" y="630" width="230" height="20" as="geometry"/>
                </mxCell>
                <mxCell id="JbTs0OWZMiUBEUDtPIBe-159" value="SerializePackageFileSummaryInternal" style="shape=step;perimeter=stepPerimeter;whiteSpace=wrap;html=1;fixedSize=1;" parent="lT-WJmCvZGzixhSHDwki-1" vertex="1">
                    <mxGeometry x="1160" y="1246" width="120" height="80" as="geometry"/>
                </mxCell>
                <mxCell id="JbTs0OWZMiUBEUDtPIBe-161" value="此包文件的目录" style="text;html=1;align=center;verticalAlign=middle;resizable=0;points=[];autosize=1;strokeColor=none;fillColor=none;" parent="lT-WJmCvZGzixhSHDwki-1" vertex="1">
                    <mxGeometry x="420" y="436" width="100" height="20" as="geometry"/>
                </mxCell>
                <mxCell id="JbTs0OWZMiUBEUDtPIBe-55" value="构造TNamedValue的辅助函数，推导值类型。" style="text;html=1;align=center;verticalAlign=middle;resizable=0;points=[];autosize=1;strokeColor=none;fillColor=none;" vertex="1" parent="lT-WJmCvZGzixhSHDwki-1">
                    <mxGeometry x="3430" y="760" width="260" height="20" as="geometry"/>
                </mxCell>
                <mxCell id="JbTs0OWZMiUBEUDtPIBe-100" value="TNamedValue" style="swimlane;fontStyle=0;childLayout=stackLayout;horizontal=1;startSize=26;fillColor=none;horizontalStack=0;resizeParent=1;resizeParentMax=0;resizeLast=0;collapsible=1;marginBottom=0;" vertex="1" parent="lT-WJmCvZGzixhSHDwki-1">
                    <mxGeometry x="3622" y="463" width="220" height="78" as="geometry"/>
                </mxCell>
                <mxCell id="JbTs0OWZMiUBEUDtPIBe-102" value="FArchiveFieldName Name;" style="text;strokeColor=none;fillColor=none;align=left;verticalAlign=top;spacingLeft=4;spacingRight=4;overflow=hidden;rotatable=0;points=[[0,0.5],[1,0.5]];portConstraint=eastwest;" vertex="1" parent="JbTs0OWZMiUBEUDtPIBe-100">
                    <mxGeometry y="26" width="220" height="26" as="geometry"/>
                </mxCell>
                <mxCell id="JbTs0OWZMiUBEUDtPIBe-108" value="T&amp; Value;" style="text;strokeColor=none;fillColor=none;align=left;verticalAlign=top;spacingLeft=4;spacingRight=4;overflow=hidden;rotatable=0;points=[[0,0.5],[1,0.5]];portConstraint=eastwest;" vertex="1" parent="JbTs0OWZMiUBEUDtPIBe-100">
                    <mxGeometry y="52" width="220" height="26" as="geometry"/>
                </mxCell>
                <mxCell id="JbTs0OWZMiUBEUDtPIBe-110" value="FArchiveFieldName" style="swimlane;fontStyle=0;childLayout=stackLayout;horizontal=1;startSize=26;fillColor=none;horizontalStack=0;resizeParent=1;resizeParentMax=0;resizeLast=0;collapsible=1;marginBottom=0;" vertex="1" parent="lT-WJmCvZGzixhSHDwki-1">
                    <mxGeometry x="3670" y="324" width="140" height="52" as="geometry"/>
                </mxCell>
                <mxCell id="JbTs0OWZMiUBEUDtPIBe-111" value="const TCHAR* Name;" style="text;strokeColor=none;fillColor=none;align=left;verticalAlign=top;spacingLeft=4;spacingRight=4;overflow=hidden;rotatable=0;points=[[0,0.5],[1,0.5]];portConstraint=eastwest;" vertex="1" parent="JbTs0OWZMiUBEUDtPIBe-110">
                    <mxGeometry y="26" width="140" height="26" as="geometry"/>
                </mxCell>
                <mxCell id="JbTs0OWZMiUBEUDtPIBe-131" value="定义一个结构来封装字段名，如果WITH_TEXT_ARCHIVE_SUPPORT = 0，该结构将编译为空对象" style="text;html=1;align=center;verticalAlign=middle;resizable=0;points=[];autosize=1;strokeColor=none;fillColor=none;" vertex="1" parent="lT-WJmCvZGzixhSHDwki-1">
                    <mxGeometry x="3520" y="290" width="540" height="20" as="geometry"/>
                </mxCell>
                <mxCell id="JbTs0OWZMiUBEUDtPIBe-160" value="切换到给定槽的范围。" style="text;html=1;align=center;verticalAlign=middle;resizable=0;points=[];autosize=1;strokeColor=none;fillColor=none;" vertex="1" parent="lT-WJmCvZGzixhSHDwki-1">
                    <mxGeometry x="2930" y="790" width="140" height="20" as="geometry"/>
                </mxCell>
            </root>
        </mxGraphModel>
    </diagram>
</mxfile>